# xmcd CD database file
#
# Track frame offsets:
#	150
#	5245
#	22750
#	40819
#	64820
#	82488
#	102079
#	121384
#	135684
#	157316
#	177907
#	198386
#	215654
#	237573
#	256509
#	281081
#	291386
#	327661
#
# Disc length: 4624 seconds
#
# Revision: 0
# Processed by: cddbd v1.5.1PL2 Copyright (c) Steve Scherf et al.
# Submitted via: CDex 1.51
#
DISCID=1a120e12
DTITLE=Enigma - Love Sensuality Devotion - The Greatest Hits
DYEAR=2003
DGENRE=New Age
TTITLE0=The Landing
TTITLE1=Turn Around
TTITLE2=Gravity of Love
TTITLE3=T.N.T. for the Brain
TTITLE4=Modern Crusaders
TTITLE5=Shadows in Silence
TTITLE6=Return to Innocence
TTITLE7=Principles of Lust
TTITLE8=Silence Must be Heard
TTITLE9=Smell of Desire
TTITLE10=Mea Culpa
TTITLE11=Push the Limits
TTITLE12=Beyond the Invisible
TTITLE13=Age of Loneliness
TTITLE14=Morphing Through Time
TTITLE15=The Cross of Change
TTITLE16=I Love You...I'll Kill You
TTITLE17=Sadeness
EXTD=YEAR: 2003
EXTT0=
EXTT1=
EXTT2=
EXTT3=
EXTT4=
EXTT5=
EXTT6=
EXTT7=
EXTT8=
EXTT9=
EXTT10=
EXTT11=
EXTT12=
EXTT13=
EXTT14=
EXTT15=
EXTT16=
EXTT17=
PLAYORDER=
